<mxfile host="Electron" agent="Mozilla/5.0 (X11; Linux x86_64) AppleWebKit/537.36 (KHTML, like Gecko) draw.io/28.1.2 Chrome/138.0.7204.243 Electron/37.4.0 Safari/537.36" version="28.1.2">
  <diagram name="Page-1" id="Jza05dGDRmTcxCxnpm81">
    <mxGraphModel dx="500" dy="315" grid="1" gridSize="10" guides="1" tooltips="1" connect="1" arrows="1" fold="1" page="1" pageScale="1" pageWidth="850" pageHeight="1100" math="0" shadow="0">
      <root>
        <mxCell id="0" />
        <mxCell id="1" parent="0" />
        <mxCell id="3gxt1IHV9OPd8U87cfYx-44" value="" style="group" vertex="1" connectable="0" parent="1">
          <mxGeometry x="270" y="380" width="140" height="190" as="geometry" />
        </mxCell>
        <mxCell id="3gxt1IHV9OPd8U87cfYx-1" value="" style="shape=cylinder3;whiteSpace=wrap;html=1;boundedLbl=1;backgroundOutline=1;size=15;fillColor=#FFF4ED;strokeColor=#d79b00;strokeWidth=3;" vertex="1" parent="3gxt1IHV9OPd8U87cfYx-44">
          <mxGeometry width="140" height="190" as="geometry" />
        </mxCell>
        <mxCell id="3gxt1IHV9OPd8U87cfYx-2" value="&lt;font face=&quot;Helvetica&quot; style=&quot;color: rgb(29, 58, 133); font-size: 11px;&quot;&gt;&lt;i style=&quot;&quot;&gt;&lt;b style=&quot;&quot;&gt;writable Linked Data node&lt;/b&gt;&lt;/i&gt;&lt;/font&gt;" style="text;html=1;align=center;verticalAlign=middle;whiteSpace=wrap;rounded=0;" vertex="1" parent="3gxt1IHV9OPd8U87cfYx-44">
          <mxGeometry x="-7.08" y="27.14" width="154.17" height="27.14" as="geometry" />
        </mxCell>
        <mxCell id="3gxt1IHV9OPd8U87cfYx-24" value="" style="group" vertex="1" connectable="0" parent="3gxt1IHV9OPd8U87cfYx-44">
          <mxGeometry y="63.333333333333336" width="62.22222222222223" height="108.57142857142857" as="geometry" />
        </mxCell>
        <mxCell id="3gxt1IHV9OPd8U87cfYx-23" style="rounded=0;orthogonalLoop=1;jettySize=auto;html=1;exitX=0;exitY=1;exitDx=0;exitDy=0;entryX=1;entryY=0;entryDx=0;entryDy=0;endArrow=none;endFill=0;" edge="1" parent="3gxt1IHV9OPd8U87cfYx-24" source="3gxt1IHV9OPd8U87cfYx-3" target="3gxt1IHV9OPd8U87cfYx-22">
          <mxGeometry relative="1" as="geometry" />
        </mxCell>
        <mxCell id="3gxt1IHV9OPd8U87cfYx-3" value="" style="ellipse;whiteSpace=wrap;html=1;aspect=fixed;fillColor=#dae8fc;strokeColor=#6c8ebf;" vertex="1" parent="3gxt1IHV9OPd8U87cfYx-24">
          <mxGeometry x="15.555555555555557" y="63.333333333333336" width="15" height="15" as="geometry" />
        </mxCell>
        <mxCell id="3gxt1IHV9OPd8U87cfYx-4" value="" style="ellipse;whiteSpace=wrap;html=1;aspect=fixed;fillColor=#f8cecc;strokeColor=#b85450;" vertex="1" parent="3gxt1IHV9OPd8U87cfYx-24">
          <mxGeometry x="46.66666666666667" width="7.5" height="7.5" as="geometry" />
        </mxCell>
        <mxCell id="3gxt1IHV9OPd8U87cfYx-5" value="" style="ellipse;whiteSpace=wrap;html=1;aspect=fixed;fillColor=#dae8fc;strokeColor=#6c8ebf;" vertex="1" parent="3gxt1IHV9OPd8U87cfYx-24">
          <mxGeometry x="38.88888888888889" y="81.42857142857143" width="15" height="15" as="geometry" />
        </mxCell>
        <mxCell id="3gxt1IHV9OPd8U87cfYx-20" style="rounded=0;orthogonalLoop=1;jettySize=auto;html=1;exitX=0.342;exitY=0.919;exitDx=0;exitDy=0;entryX=0.5;entryY=0;entryDx=0;entryDy=0;endArrow=none;endFill=0;exitPerimeter=0;" edge="1" parent="3gxt1IHV9OPd8U87cfYx-24" source="3gxt1IHV9OPd8U87cfYx-6" target="3gxt1IHV9OPd8U87cfYx-5">
          <mxGeometry relative="1" as="geometry" />
        </mxCell>
        <mxCell id="3gxt1IHV9OPd8U87cfYx-6" value="" style="ellipse;whiteSpace=wrap;html=1;aspect=fixed;fillColor=#dae8fc;strokeColor=#6c8ebf;" vertex="1" parent="3gxt1IHV9OPd8U87cfYx-24">
          <mxGeometry x="46.66666666666667" y="45.238095238095234" width="15" height="15" as="geometry" />
        </mxCell>
        <mxCell id="3gxt1IHV9OPd8U87cfYx-15" style="rounded=0;orthogonalLoop=1;jettySize=auto;html=1;exitX=0;exitY=0;exitDx=0;exitDy=0;entryX=1;entryY=1;entryDx=0;entryDy=0;endArrow=none;endFill=0;" edge="1" parent="3gxt1IHV9OPd8U87cfYx-24" source="3gxt1IHV9OPd8U87cfYx-7" target="3gxt1IHV9OPd8U87cfYx-8">
          <mxGeometry relative="1" as="geometry" />
        </mxCell>
        <mxCell id="3gxt1IHV9OPd8U87cfYx-17" style="rounded=0;orthogonalLoop=1;jettySize=auto;html=1;exitX=1;exitY=0;exitDx=0;exitDy=0;entryX=0;entryY=1;entryDx=0;entryDy=0;endArrow=none;endFill=0;" edge="1" parent="3gxt1IHV9OPd8U87cfYx-24" source="3gxt1IHV9OPd8U87cfYx-7" target="3gxt1IHV9OPd8U87cfYx-4">
          <mxGeometry relative="1" as="geometry" />
        </mxCell>
        <mxCell id="3gxt1IHV9OPd8U87cfYx-18" style="rounded=0;orthogonalLoop=1;jettySize=auto;html=1;exitX=1;exitY=1;exitDx=0;exitDy=0;entryX=0;entryY=0;entryDx=0;entryDy=0;endArrow=none;endFill=0;" edge="1" parent="3gxt1IHV9OPd8U87cfYx-24" source="3gxt1IHV9OPd8U87cfYx-7" target="3gxt1IHV9OPd8U87cfYx-6">
          <mxGeometry relative="1" as="geometry" />
        </mxCell>
        <mxCell id="3gxt1IHV9OPd8U87cfYx-19" style="rounded=0;orthogonalLoop=1;jettySize=auto;html=1;exitX=0.5;exitY=1;exitDx=0;exitDy=0;endArrow=none;endFill=0;" edge="1" parent="3gxt1IHV9OPd8U87cfYx-24" source="3gxt1IHV9OPd8U87cfYx-7" target="3gxt1IHV9OPd8U87cfYx-3">
          <mxGeometry relative="1" as="geometry" />
        </mxCell>
        <mxCell id="3gxt1IHV9OPd8U87cfYx-7" value="" style="ellipse;whiteSpace=wrap;html=1;aspect=fixed;fillColor=#dae8fc;strokeColor=#6c8ebf;" vertex="1" parent="3gxt1IHV9OPd8U87cfYx-24">
          <mxGeometry x="27.222222222222225" y="18.095238095238095" width="15" height="15" as="geometry" />
        </mxCell>
        <mxCell id="3gxt1IHV9OPd8U87cfYx-8" value="" style="ellipse;whiteSpace=wrap;html=1;aspect=fixed;fillColor=#d5e8d4;strokeColor=#82b366;" vertex="1" parent="3gxt1IHV9OPd8U87cfYx-24">
          <mxGeometry x="15.555555555555557" width="7.5" height="7.5" as="geometry" />
        </mxCell>
        <mxCell id="3gxt1IHV9OPd8U87cfYx-21" style="rounded=0;orthogonalLoop=1;jettySize=auto;html=1;entryX=0.5;entryY=1;entryDx=0;entryDy=0;endArrow=none;endFill=0;" edge="1" parent="3gxt1IHV9OPd8U87cfYx-24" source="3gxt1IHV9OPd8U87cfYx-13" target="3gxt1IHV9OPd8U87cfYx-3">
          <mxGeometry relative="1" as="geometry" />
        </mxCell>
        <mxCell id="3gxt1IHV9OPd8U87cfYx-13" value="" style="ellipse;whiteSpace=wrap;html=1;aspect=fixed;fillColor=#f8cecc;strokeColor=#b85450;" vertex="1" parent="3gxt1IHV9OPd8U87cfYx-24">
          <mxGeometry x="23.333333333333336" y="99.52380952380952" width="7.5" height="7.5" as="geometry" />
        </mxCell>
        <mxCell id="3gxt1IHV9OPd8U87cfYx-22" value="" style="ellipse;whiteSpace=wrap;html=1;aspect=fixed;fillColor=#d5e8d4;strokeColor=#82b366;" vertex="1" parent="3gxt1IHV9OPd8U87cfYx-24">
          <mxGeometry x="7.777777777777779" y="85.95238095238096" width="7.5" height="7.5" as="geometry" />
        </mxCell>
        <mxCell id="3gxt1IHV9OPd8U87cfYx-25" value="&lt;font style=&quot;font-size: 21px;&quot;&gt;🔄&lt;/font&gt;" style="text;html=1;align=center;verticalAlign=middle;whiteSpace=wrap;rounded=0;" vertex="1" parent="3gxt1IHV9OPd8U87cfYx-44">
          <mxGeometry x="54.44444444444444" y="72.38095238095238" width="46.666666666666664" height="27.142857142857142" as="geometry" />
        </mxCell>
        <mxCell id="3gxt1IHV9OPd8U87cfYx-26" value="&lt;font style=&quot;font-size: 21px;&quot;&gt;🔄&lt;/font&gt;" style="text;html=1;align=center;verticalAlign=middle;whiteSpace=wrap;rounded=0;" vertex="1" parent="3gxt1IHV9OPd8U87cfYx-44">
          <mxGeometry x="54.44444444444444" y="135.7142857142857" width="46.666666666666664" height="27.142857142857142" as="geometry" />
        </mxCell>
        <mxCell id="3gxt1IHV9OPd8U87cfYx-27" value="" style="ellipse;whiteSpace=wrap;html=1;aspect=fixed;fillColor=#f8cecc;strokeColor=#b85450;" vertex="1" parent="3gxt1IHV9OPd8U87cfYx-44">
          <mxGeometry x="124.44444444444446" y="63.333333333333336" width="7.5" height="7.5" as="geometry" />
        </mxCell>
        <mxCell id="3gxt1IHV9OPd8U87cfYx-28" style="rounded=0;orthogonalLoop=1;jettySize=auto;html=1;exitX=0;exitY=0;exitDx=0;exitDy=0;entryX=1;entryY=1;entryDx=0;entryDy=0;endArrow=none;endFill=0;" edge="1" parent="3gxt1IHV9OPd8U87cfYx-44" source="3gxt1IHV9OPd8U87cfYx-30" target="3gxt1IHV9OPd8U87cfYx-31">
          <mxGeometry relative="1" as="geometry" />
        </mxCell>
        <mxCell id="3gxt1IHV9OPd8U87cfYx-29" style="rounded=0;orthogonalLoop=1;jettySize=auto;html=1;exitX=1;exitY=0;exitDx=0;exitDy=0;entryX=0;entryY=1;entryDx=0;entryDy=0;endArrow=none;endFill=0;" edge="1" parent="3gxt1IHV9OPd8U87cfYx-44" source="3gxt1IHV9OPd8U87cfYx-30" target="3gxt1IHV9OPd8U87cfYx-27">
          <mxGeometry relative="1" as="geometry" />
        </mxCell>
        <mxCell id="3gxt1IHV9OPd8U87cfYx-30" value="" style="ellipse;whiteSpace=wrap;html=1;aspect=fixed;fillColor=#dae8fc;strokeColor=#6c8ebf;" vertex="1" parent="3gxt1IHV9OPd8U87cfYx-44">
          <mxGeometry x="105" y="81.42857142857143" width="15" height="15" as="geometry" />
        </mxCell>
        <mxCell id="3gxt1IHV9OPd8U87cfYx-31" value="" style="ellipse;whiteSpace=wrap;html=1;aspect=fixed;fillColor=#d5e8d4;strokeColor=#82b366;" vertex="1" parent="3gxt1IHV9OPd8U87cfYx-44">
          <mxGeometry x="93.33333333333333" y="63.333333333333336" width="7.5" height="7.5" as="geometry" />
        </mxCell>
        <mxCell id="3gxt1IHV9OPd8U87cfYx-39" value="" style="group" vertex="1" connectable="0" parent="3gxt1IHV9OPd8U87cfYx-44">
          <mxGeometry x="93.33333333333333" y="126.66666666666667" width="38.888888888888886" height="54.285714285714285" as="geometry" />
        </mxCell>
        <mxCell id="3gxt1IHV9OPd8U87cfYx-38" style="rounded=0;orthogonalLoop=1;jettySize=auto;html=1;entryX=1;entryY=0.5;entryDx=0;entryDy=0;endArrow=none;endFill=0;" edge="1" parent="3gxt1IHV9OPd8U87cfYx-39" source="3gxt1IHV9OPd8U87cfYx-32" target="3gxt1IHV9OPd8U87cfYx-37">
          <mxGeometry relative="1" as="geometry" />
        </mxCell>
        <mxCell id="3gxt1IHV9OPd8U87cfYx-32" value="" style="ellipse;whiteSpace=wrap;html=1;aspect=fixed;fillColor=#ffe6cc;strokeColor=#d79b00;" vertex="1" parent="3gxt1IHV9OPd8U87cfYx-39">
          <mxGeometry x="15.555555555555557" width="15" height="15" as="geometry" />
        </mxCell>
        <mxCell id="3gxt1IHV9OPd8U87cfYx-35" style="rounded=0;orthogonalLoop=1;jettySize=auto;html=1;exitX=1;exitY=0;exitDx=0;exitDy=0;entryX=0;entryY=1;entryDx=0;entryDy=0;endArrow=none;endFill=0;" edge="1" parent="3gxt1IHV9OPd8U87cfYx-39" source="3gxt1IHV9OPd8U87cfYx-33" target="3gxt1IHV9OPd8U87cfYx-32">
          <mxGeometry relative="1" as="geometry" />
        </mxCell>
        <mxCell id="3gxt1IHV9OPd8U87cfYx-33" value="" style="ellipse;whiteSpace=wrap;html=1;aspect=fixed;fillColor=#d5e8d4;strokeColor=#82b366;" vertex="1" parent="3gxt1IHV9OPd8U87cfYx-39">
          <mxGeometry y="27.142857142857142" width="15" height="15" as="geometry" />
        </mxCell>
        <mxCell id="3gxt1IHV9OPd8U87cfYx-36" style="rounded=0;orthogonalLoop=1;jettySize=auto;html=1;entryX=1;entryY=1;entryDx=0;entryDy=0;endArrow=none;endFill=0;" edge="1" parent="3gxt1IHV9OPd8U87cfYx-39" source="3gxt1IHV9OPd8U87cfYx-34" target="3gxt1IHV9OPd8U87cfYx-32">
          <mxGeometry relative="1" as="geometry" />
        </mxCell>
        <mxCell id="3gxt1IHV9OPd8U87cfYx-34" value="" style="ellipse;whiteSpace=wrap;html=1;aspect=fixed;fillColor=#fff2cc;strokeColor=#d6b656;" vertex="1" parent="3gxt1IHV9OPd8U87cfYx-39">
          <mxGeometry x="23.333333333333332" y="36.19047619047619" width="15" height="15" as="geometry" />
        </mxCell>
        <mxCell id="3gxt1IHV9OPd8U87cfYx-37" value="" style="ellipse;whiteSpace=wrap;html=1;aspect=fixed;fillColor=#e1d5e7;strokeColor=#9673a6;" vertex="1" parent="3gxt1IHV9OPd8U87cfYx-39">
          <mxGeometry width="7.5" height="7.5" as="geometry" />
        </mxCell>
        <mxCell id="3gxt1IHV9OPd8U87cfYx-50" value="&lt;font style=&quot;&quot; face=&quot;Helvetica&quot;&gt;&lt;span style=&quot;background-color: transparent; font-variant-numeric: normal; font-variant-east-asian: normal; font-variant-alternates: normal; font-variant-position: normal; font-variant-emoji: normal; vertical-align: baseline;&quot; id=&quot;docs-internal-guid-e5fe56d7-7fff-f846-5d71-e33d27695494&quot;&gt;&lt;span style=&quot;font-size: 8px; white-space-collapse: preserve;&quot;&gt;HCP👤manually measured &lt;/span&gt;&lt;/span&gt;&lt;/font&gt;&lt;span style=&quot;font-size: 9px;&quot;&gt;⚙️&lt;/span&gt;&lt;font style=&quot;&quot; face=&quot;Helvetica&quot;&gt;&lt;span style=&quot;background-color: transparent; font-variant-numeric: normal; font-variant-east-asian: normal; font-variant-alternates: normal; font-variant-position: normal; font-variant-emoji: normal; vertical-align: baseline;&quot;&gt;&lt;span style=&quot;white-space-collapse: preserve; font-size: 8px;&quot;&gt; weight  &lt;/span&gt;&lt;/span&gt;&lt;/font&gt;&lt;font style=&quot;&quot; face=&quot;Helvetica&quot;&gt;&lt;span style=&quot;background-color: transparent; font-variant-numeric: normal; font-variant-east-asian: normal; font-variant-alternates: normal; font-variant-position: normal; font-variant-emoji: normal; vertical-align: baseline;&quot;&gt;&lt;span style=&quot;font-size: 8px; white-space-collapse: preserve;&quot;&gt;93.46kg 🏷️ on 4/5/25&lt;/span&gt;&lt;/span&gt;&lt;/font&gt;" style="text;html=1;align=left;verticalAlign=middle;whiteSpace=wrap;rounded=0;strokeColor=#000059;" vertex="1" parent="1">
          <mxGeometry x="390" y="260" width="80" height="80" as="geometry" />
        </mxCell>
        <mxCell id="3gxt1IHV9OPd8U87cfYx-58" value="&lt;font style=&quot;&quot; face=&quot;Helvetica&quot;&gt;&lt;span style=&quot;background-color: transparent; font-variant-numeric: normal; font-variant-east-asian: normal; font-variant-alternates: normal; font-variant-position: normal; font-variant-emoji: normal; vertical-align: baseline;&quot; id=&quot;docs-internal-guid-e5fe56d7-7fff-f846-5d71-e33d27695494&quot;&gt;&lt;span style=&quot;font-size: 8px; white-space-collapse: preserve;&quot;&gt;Smart Scale👤 measured &lt;/span&gt;&lt;/span&gt;&lt;/font&gt;&lt;span style=&quot;font-size: 9px;&quot;&gt;⚙️&lt;/span&gt;&lt;font style=&quot;&quot; face=&quot;Helvetica&quot;&gt;&lt;span style=&quot;background-color: transparent; font-variant-numeric: normal; font-variant-east-asian: normal; font-variant-alternates: normal; font-variant-position: normal; font-variant-emoji: normal; vertical-align: baseline;&quot;&gt;&lt;span style=&quot;white-space-collapse: preserve; font-size: 8px;&quot;&gt; weight &lt;/span&gt;&lt;/span&gt;&lt;/font&gt;&lt;span style=&quot;font-size: 8px; white-space-collapse: preserve;&quot;&gt;92.9kg&lt;/span&gt;&lt;span style=&quot;font-size: 8px; white-space-collapse: preserve;&quot;&gt;🏷️&lt;/span&gt;&lt;span style=&quot;font-size: 8px; white-space-collapse: preserve;&quot;&gt;on 7/5/25&lt;/span&gt;&lt;div&gt;&lt;span style=&quot;font-size: 8px; white-space-collapse: preserve;&quot;&gt;93.0 kg&lt;/span&gt;&lt;span style=&quot;font-size: 8px; white-space-collapse: preserve; background-color: transparent; color: light-dark(rgb(0, 0, 0), rgb(255, 255, 255));&quot;&gt;🏷️on 8/5/25&lt;/span&gt;&lt;/div&gt;&lt;div&gt;&lt;span style=&quot;font-size: 8px; white-space-collapse: preserve;&quot;&gt;92.7kg&lt;/span&gt;&lt;span style=&quot;font-size: 8px; white-space-collapse: preserve; background-color: transparent; color: light-dark(rgb(0, 0, 0), rgb(255, 255, 255));&quot;&gt;🏷️ on 9/5/25&lt;/span&gt;&lt;/div&gt;" style="text;html=1;align=left;verticalAlign=middle;whiteSpace=wrap;rounded=0;strokeColor=#11224E;" vertex="1" parent="1">
          <mxGeometry x="300" y="260" width="80" height="80" as="geometry" />
        </mxCell>
        <mxCell id="3gxt1IHV9OPd8U87cfYx-72" style="edgeStyle=orthogonalEdgeStyle;rounded=0;orthogonalLoop=1;jettySize=auto;html=1;exitX=0.5;exitY=1;exitDx=0;exitDy=0;" edge="1" parent="1" source="3gxt1IHV9OPd8U87cfYx-60">
          <mxGeometry relative="1" as="geometry">
            <mxPoint x="340" y="380" as="targetPoint" />
          </mxGeometry>
        </mxCell>
        <mxCell id="3gxt1IHV9OPd8U87cfYx-60" value="&lt;font style=&quot;&quot; face=&quot;Helvetica&quot;&gt;&lt;span style=&quot;background-color: transparent; font-variant-numeric: normal; font-variant-east-asian: normal; font-variant-alternates: normal; font-variant-position: normal; font-variant-emoji: normal; vertical-align: baseline;&quot; id=&quot;docs-internal-guid-e5fe56d7-7fff-f846-5d71-e33d27695494&quot;&gt;&lt;span style=&quot;font-size: 8px; white-space-collapse: preserve;&quot;&gt;Patient👤entered &lt;/span&gt;&lt;/span&gt;&lt;/font&gt;&lt;span style=&quot;font-size: 9px;&quot;&gt;⚙️&lt;/span&gt;&lt;font style=&quot;&quot; face=&quot;Helvetica&quot;&gt;&lt;span style=&quot;background-color: transparent; font-variant-numeric: normal; font-variant-east-asian: normal; font-variant-alternates: normal; font-variant-position: normal; font-variant-emoji: normal; vertical-align: baseline;&quot;&gt;&lt;span style=&quot;white-space-collapse: preserve; font-size: 8px;&quot;&gt; weight&lt;/span&gt;&lt;/span&gt;&lt;/font&gt;&lt;font style=&quot;&quot; face=&quot;Helvetica&quot;&gt;&lt;span style=&quot;background-color: transparent; font-variant-numeric: normal; font-variant-east-asian: normal; font-variant-alternates: normal; font-variant-position: normal; font-variant-emoji: normal; vertical-align: baseline;&quot;&gt;&lt;span style=&quot;white-space-collapse: preserve; font-size: 8px;&quot;&gt; 200lb&lt;/span&gt;&lt;/span&gt;&lt;/font&gt;&lt;span style=&quot;font-size: 8px; white-space-collapse: preserve;&quot;&gt;🏷️&lt;/span&gt;&lt;font style=&quot;&quot; face=&quot;Helvetica&quot;&gt;&lt;span style=&quot;background-color: transparent; font-variant-numeric: normal; font-variant-east-asian: normal; font-variant-alternates: normal; font-variant-position: normal; font-variant-emoji: normal; vertical-align: baseline;&quot;&gt;&lt;span style=&quot;white-space-collapse: preserve; font-size: 8px;&quot;&gt; &lt;/span&gt;&lt;/span&gt;&lt;/font&gt;&lt;span style=&quot;font-size: 8px; white-space-collapse: preserve; background-color: transparent; color: light-dark(rgb(0, 0, 0), rgb(255, 255, 255));&quot;&gt;on 10/5/25&lt;/span&gt;" style="text;html=1;align=left;verticalAlign=middle;whiteSpace=wrap;rounded=0;strokeColor=#000059;" vertex="1" parent="1">
          <mxGeometry x="210" y="260" width="80" height="80" as="geometry" />
        </mxCell>
        <mxCell id="3gxt1IHV9OPd8U87cfYx-67" value="&lt;div style=&quot;&quot;&gt;&lt;b style=&quot;background-color: transparent; color: light-dark(rgb(0, 0, 0), rgb(255, 255, 255));&quot;&gt;&lt;font style=&quot;font-size: 8px;&quot;&gt;Event Sourcing&lt;/font&gt;&lt;/b&gt;&lt;/div&gt;&lt;div style=&quot;&quot;&gt;&lt;font style=&quot;font-size: 8px;&quot;&gt;Actor&amp;nbsp;&lt;span style=&quot;white-space-collapse: preserve; background-color: transparent; color: light-dark(rgb(0, 0, 0), rgb(255, 255, 255));&quot;&gt;&lt;font&gt;👤 &lt;/font&gt;&lt;/span&gt;&lt;/font&gt;&lt;/div&gt;&lt;div style=&quot;&quot;&gt;&lt;font style=&quot;font-size: 8px;&quot;&gt;&lt;span style=&quot;white-space-collapse: preserve; background-color: transparent; color: light-dark(rgb(0, 0, 0), rgb(255, 255, 255));&quot;&gt;&lt;font&gt;Entity &lt;/font&gt;&lt;/span&gt;&lt;span style=&quot;background-color: transparent; white-space-collapse: preserve;&quot;&gt;🏷️ &lt;/span&gt;&lt;/font&gt;&lt;/div&gt;&lt;div style=&quot;&quot;&gt;&lt;font style=&quot;font-size: 8px;&quot;&gt;&lt;span style=&quot;background-color: transparent; white-space-collapse: preserve;&quot;&gt;Activity &lt;/span&gt;&lt;span style=&quot;background-color: transparent; white-space-collapse: preserve;&quot;&gt;⚙️&lt;/span&gt;&lt;span style=&quot;background-color: transparent; color: light-dark(rgb(0, 0, 0), rgb(255, 255, 255)); white-space-collapse: preserve;&quot;&gt; &lt;/span&gt;&lt;span style=&quot;background-color: transparent; color: light-dark(rgb(0, 0, 0), rgb(255, 255, 255)); white-space-collapse: preserve;&quot;&gt; &lt;/span&gt;&lt;/font&gt;&lt;/div&gt;" style="text;html=1;align=left;verticalAlign=middle;whiteSpace=wrap;rounded=0;strokeColor=default;dashed=1;" vertex="1" parent="1">
          <mxGeometry x="180" y="410" width="80" height="60" as="geometry" />
        </mxCell>
        <mxCell id="3gxt1IHV9OPd8U87cfYx-68" value="&lt;div&gt;&lt;font style=&quot;font-size: 8px;&quot;&gt;&lt;b&gt;CQRS&lt;/b&gt;&lt;/font&gt;&lt;/div&gt;&lt;div&gt;&lt;font style=&quot;font-size: 8px;&quot;&gt;Mapping 🔄&lt;span style=&quot;white-space-collapse: preserve; background-color: transparent; color: light-dark(rgb(0, 0, 0), rgb(255, 255, 255));&quot;&gt;&lt;font&gt; &lt;/font&gt;&lt;/span&gt;&lt;/font&gt;&lt;/div&gt;&lt;div&gt;&lt;font style=&quot;font-size: 8px;&quot;&gt;&lt;span style=&quot;white-space-collapse: preserve; background-color: transparent; color: light-dark(rgb(0, 0, 0), rgb(255, 255, 255));&quot;&gt;&lt;font&gt;Command &lt;/font&gt;&lt;/span&gt;&lt;/font&gt;&lt;span style=&quot;background-color: transparent; font-size: 8px; white-space-collapse: preserve;&quot;&gt;🛂&lt;/span&gt;&lt;span style=&quot;font-size: 8px; background-color: transparent; color: light-dark(rgb(0, 0, 0), rgb(255, 255, 255)); white-space-collapse: preserve;&quot;&gt; &lt;/span&gt;&lt;/div&gt;&lt;div&gt;&lt;span style=&quot;font-size: 8px; background-color: transparent; color: light-dark(rgb(0, 0, 0), rgb(255, 255, 255)); white-space-collapse: preserve;&quot;&gt;Query &lt;/span&gt;&lt;span style=&quot;background-color: transparent; font-size: 8px; white-space-collapse: preserve;&quot;&gt;🤔&lt;/span&gt;&lt;span style=&quot;background-color: transparent; color: light-dark(rgb(0, 0, 0), rgb(255, 255, 255)); white-space-collapse: preserve; font-size: 8px;&quot;&gt; &lt;/span&gt;&lt;span style=&quot;background-color: transparent; color: light-dark(rgb(0, 0, 0), rgb(255, 255, 255)); white-space-collapse: preserve; font-size: 8px;&quot;&gt; &lt;/span&gt;&lt;/div&gt;" style="text;html=1;align=left;verticalAlign=middle;whiteSpace=wrap;rounded=0;strokeColor=default;dashed=1;" vertex="1" parent="1">
          <mxGeometry x="180" y="480" width="80" height="60" as="geometry" />
        </mxCell>
        <mxCell id="3gxt1IHV9OPd8U87cfYx-70" style="edgeStyle=orthogonalEdgeStyle;rounded=0;orthogonalLoop=1;jettySize=auto;html=1;entryX=0.5;entryY=0;entryDx=0;entryDy=0;entryPerimeter=0;" edge="1" parent="1" source="3gxt1IHV9OPd8U87cfYx-58" target="3gxt1IHV9OPd8U87cfYx-1">
          <mxGeometry relative="1" as="geometry" />
        </mxCell>
        <mxCell id="3gxt1IHV9OPd8U87cfYx-71" style="edgeStyle=orthogonalEdgeStyle;rounded=0;orthogonalLoop=1;jettySize=auto;html=1;entryX=0.5;entryY=0;entryDx=0;entryDy=0;entryPerimeter=0;" edge="1" parent="1" source="3gxt1IHV9OPd8U87cfYx-50" target="3gxt1IHV9OPd8U87cfYx-1">
          <mxGeometry relative="1" as="geometry">
            <Array as="points">
              <mxPoint x="430" y="360" />
              <mxPoint x="340" y="360" />
            </Array>
          </mxGeometry>
        </mxCell>
        <mxCell id="3gxt1IHV9OPd8U87cfYx-73" value="&lt;span style=&quot;text-align: left; white-space-collapse: preserve;&quot;&gt;&lt;font&gt;🛂&lt;/font&gt;&lt;/span&gt;" style="text;html=1;align=center;verticalAlign=middle;whiteSpace=wrap;rounded=0;" vertex="1" parent="1">
          <mxGeometry x="400" y="340" width="40" height="20" as="geometry" />
        </mxCell>
        <mxCell id="3gxt1IHV9OPd8U87cfYx-74" value="&lt;span style=&quot;text-align: left; white-space-collapse: preserve;&quot;&gt;&lt;font&gt;🛂&lt;/font&gt;&lt;/span&gt;" style="text;html=1;align=center;verticalAlign=middle;whiteSpace=wrap;rounded=0;" vertex="1" parent="1">
          <mxGeometry x="330" y="340" width="40" height="20" as="geometry" />
        </mxCell>
        <mxCell id="3gxt1IHV9OPd8U87cfYx-75" value="&lt;span style=&quot;text-align: left; white-space-collapse: preserve;&quot;&gt;&lt;font&gt;🛂&lt;/font&gt;&lt;/span&gt;" style="text;html=1;align=center;verticalAlign=middle;whiteSpace=wrap;rounded=0;" vertex="1" parent="1">
          <mxGeometry x="240" y="340" width="40" height="20" as="geometry" />
        </mxCell>
        <mxCell id="3gxt1IHV9OPd8U87cfYx-77" value="&lt;span style=&quot;font-size: 8px; white-space-collapse: preserve;&quot;&gt;Patient has lost 2.7kg by 11/5/25&lt;/span&gt;" style="text;html=1;align=left;verticalAlign=middle;whiteSpace=wrap;rounded=0;strokeColor=#000059;" vertex="1" parent="1">
          <mxGeometry x="230" y="600" width="80" height="40" as="geometry" />
        </mxCell>
        <mxCell id="3gxt1IHV9OPd8U87cfYx-78" style="edgeStyle=orthogonalEdgeStyle;rounded=0;orthogonalLoop=1;jettySize=auto;html=1;entryX=0.5;entryY=1;entryDx=0;entryDy=0;entryPerimeter=0;" edge="1" parent="1" source="3gxt1IHV9OPd8U87cfYx-77" target="3gxt1IHV9OPd8U87cfYx-1">
          <mxGeometry relative="1" as="geometry">
            <Array as="points">
              <mxPoint x="270" y="590" />
              <mxPoint x="340" y="590" />
            </Array>
          </mxGeometry>
        </mxCell>
        <mxCell id="3gxt1IHV9OPd8U87cfYx-79" value="&lt;span style=&quot;white-space-collapse: preserve;&quot;&gt;&lt;span style=&quot;font-size: 8px;&quot;&gt;Avergage cohort evolution &lt;/span&gt;&lt;font style=&quot;font-size: 18px;&quot;&gt;📉&lt;/font&gt;&lt;/span&gt;" style="text;html=1;align=left;verticalAlign=middle;whiteSpace=wrap;rounded=0;strokeColor=#000059;" vertex="1" parent="1">
          <mxGeometry x="360" y="600" width="80" height="40" as="geometry" />
        </mxCell>
        <mxCell id="3gxt1IHV9OPd8U87cfYx-85" style="edgeStyle=orthogonalEdgeStyle;rounded=0;orthogonalLoop=1;jettySize=auto;html=1;exitX=0.25;exitY=1;exitDx=0;exitDy=0;" edge="1" parent="1" source="3gxt1IHV9OPd8U87cfYx-81">
          <mxGeometry relative="1" as="geometry">
            <mxPoint x="340" y="570" as="targetPoint" />
            <Array as="points">
              <mxPoint x="400" y="590" />
              <mxPoint x="340" y="590" />
            </Array>
          </mxGeometry>
        </mxCell>
        <mxCell id="3gxt1IHV9OPd8U87cfYx-81" value="&lt;span style=&quot;white-space-collapse: preserve;&quot;&gt;🤔&lt;/span&gt;" style="text;html=1;align=center;verticalAlign=middle;whiteSpace=wrap;rounded=0;" vertex="1" parent="1">
          <mxGeometry x="390" y="580" width="40" height="20" as="geometry" />
        </mxCell>
        <mxCell id="3gxt1IHV9OPd8U87cfYx-82" value="&lt;span style=&quot;white-space-collapse: preserve;&quot;&gt;🤔&lt;/span&gt;" style="text;html=1;align=center;verticalAlign=middle;whiteSpace=wrap;rounded=0;" vertex="1" parent="1">
          <mxGeometry x="240" y="580" width="40" height="20" as="geometry" />
        </mxCell>
      </root>
    </mxGraphModel>
  </diagram>
</mxfile>
